<?xml version="1.0" encoding="utf-8"?>
<!-- Generator: Adobe Illustrator 16.0.0, SVG Export Plug-In . SVG Version: 6.00 Build 0)  -->
<!DOCTYPE svg PUBLIC "-//W3C//DTD SVG 1.1//EN" "http://www.w3.org/Graphics/SVG/1.1/DTD/svg11.dtd" [
	<!ENTITY ns_extend "http://ns.adobe.com/Extensibility/1.0/">
	<!ENTITY ns_ai "http://ns.adobe.com/AdobeIllustrator/10.0/">
	<!ENTITY ns_graphs "http://ns.adobe.com/Graphs/1.0/">
	<!ENTITY ns_vars "http://ns.adobe.com/Variables/1.0/">
	<!ENTITY ns_imrep "http://ns.adobe.com/ImageReplacement/1.0/">
	<!ENTITY ns_sfw "http://ns.adobe.com/SaveForWeb/1.0/">
	<!ENTITY ns_custom "http://ns.adobe.com/GenericCustomNamespace/1.0/">
	<!ENTITY ns_adobe_xpath "http://ns.adobe.com/XPath/1.0/">
]>
<svg version="1.1" id="Campus" xmlns:x="&ns_extend;" xmlns:i="&ns_ai;" xmlns:graph="&ns_graphs;"
	 xmlns="http://www.w3.org/2000/svg" xmlns:xlink="http://www.w3.org/1999/xlink" x="0px" y="0px" width="216px" height="34px"
	 viewBox="0 0 216 34" enable-background="new 0 0 216 34" xml:space="preserve">
<metadata>
	<sfw  xmlns="&ns_sfw;">
		<slices></slices>
		<sliceSourceBounds  x="-8178" y="-2.536" width="16383" height="34.028" bottomLeftOrigin="true"></sliceSourceBounds>
		<optimizationSettings>
			<targetSettings  targetSettingsID="0" fileFormat="JPEGFormat">
				
					<JPEGFormat  quality="100" blurAmount="0" noMatteColor="false" optimized="true" progressive="false" matteColor="#FFFFFF" embedICCProfile="false">
					</JPEGFormat>
			</targetSettings>
		</optimizationSettings>
	</sfw>
</metadata>
<path id="SeerEngine2_拷贝" fill="#FFFFFF" d="M47.407,25.038c3.635,0,5.453-1.377,5.453-4.131c0-2.448-1.429-3.672-4.287-3.672
	h-2.24c-0.737,0.137-1.446-0.349-1.583-1.086c-0.023-0.126-0.029-0.255-0.017-0.382c0-1.286,1.1-1.928,3.3-1.928
	c1.425-0.008,2.84,0.241,4.177,0.734v-2.2c-1.35-0.434-2.759-0.651-4.177-0.643c-3.825,0-5.737,1.346-5.737,4.039
	c0,2.448,1.343,3.67,4.03,3.67h2.24c1.236,0,1.854,0.49,1.854,1.471c0,1.347-1.007,2.021-3.02,2.021
	c-1.519,0.021-3.03-0.228-4.461-0.734v2.199c1.444,0.446,2.95,0.664,4.461,0.644l0,0h0.007V25.038z M59.138,15.308
	c-3.2,0-4.8,1.569-4.8,4.709c0,3.283,1.748,4.928,5.242,4.93c1.102,0.021,2.203-0.071,3.286-0.275v-1.929
	c-0.962,0.183-1.94,0.274-2.919,0.274c-2.117,0-3.176-0.648-3.176-1.945h6.306C63.646,17.229,62.333,15.307,59.138,15.308
	L59.138,15.308L59.138,15.308z M58.863,17.217c0.932-0.146,1.806,0.491,1.952,1.424c0.034,0.217,0.026,0.438-0.024,0.651H56.77
	c-0.08-1.067,0.722-1.997,1.789-2.076C58.66,17.208,58.762,17.208,58.863,17.217L58.863,17.217z M69.484,15.308
	c-3.2,0-4.8,1.569-4.8,4.709c0,3.283,1.747,4.928,5.242,4.93c1.102,0.021,2.203-0.071,3.286-0.275v-1.929
	c-0.962,0.183-1.939,0.274-2.919,0.274c-2.117,0-3.176-0.648-3.176-1.945h6.307c0.569-3.844-0.743-5.765-3.938-5.765l0,0
	L69.484,15.308z M69.209,17.217c0.932-0.146,1.806,0.491,1.952,1.424c0.034,0.217,0.026,0.438-0.024,0.651h-4.022
	c-0.08-1.067,0.721-1.997,1.789-2.076C69.005,17.208,69.107,17.208,69.209,17.217L69.209,17.217L69.209,17.217z M78.058,24.945
	v-6.452c0.587-0.751,1.48-1.199,2.433-1.221v-1.964c-1.022,0.035-1.987,0.478-2.68,1.23l-0.3-1.23h-1.886v9.639h2.433V24.945
	L78.058,24.945z M82.472,11.82v13.127h8.748v-2.112h-6.361v-3.442h5.921v-2.176h-5.893v-3.3h6.206V11.82H82.472L82.472,11.82z
	 M96.416,24.947v-6.454c0.674-0.722,1.598-1.159,2.584-1.221c0.77-0.108,1.482,0.428,1.59,1.199c0.019,0.133,0.019,0.27-0.001,0.401
	v6.077h2.432V18.9c0-2.395-1.111-3.589-3.332-3.589c-1.274,0.031-2.507,0.461-3.525,1.23l-0.3-1.23h-1.881v9.639h2.433V24.947
	L96.416,24.947z M112.141,22.247c-0.725,0.345-1.521,0.517-2.322,0.5c-1.449,0-2.174-0.896-2.174-2.69
	c0-1.854,0.874-2.781,2.616-2.781c0.637-0.029,1.271,0.045,1.885,0.22v4.755v-0.004H112.141z M114.573,15.702
	c-1.341-0.24-2.697-0.373-4.058-0.395c-3.521,0-5.281,1.588-5.281,4.763c0,3.128,1.524,4.689,4.574,4.689
	c0.801,0.008,1.594-0.148,2.332-0.459c0,1.469-0.906,2.2-2.72,2.2c-1.076,0.017-2.148-0.142-3.176-0.459v1.931
	c1.021,0.318,2.087,0.476,3.155,0.459c3.445,0,5.168-1.164,5.17-3.488V15.7L114.573,15.702L114.573,15.702z M117.244,11.819v1.928
	h2.432V11.82L117.244,11.819L117.244,11.819z M117.244,15.307v9.638h2.432v-9.637L117.244,15.307L117.244,15.307z M124.779,24.945
	v-6.452c0.676-0.724,1.602-1.16,2.59-1.221c0.77-0.108,1.48,0.429,1.59,1.199c0.018,0.135,0.018,0.271-0.002,0.401v6.077h2.432V18.9
	c0-2.395-1.109-3.589-3.332-3.589c-1.272,0.031-2.507,0.461-3.522,1.23l-0.302-1.23h-1.883v9.639h2.436L124.779,24.945z
	 M138.266,15.307c-3.201,0-4.801,1.569-4.801,4.708c0,3.284,1.747,4.93,5.241,4.93c1.103,0.021,2.203-0.07,3.286-0.274v-1.928
	c-0.963,0.183-1.939,0.274-2.92,0.274c-2.115,0-3.176-0.648-3.176-1.945h6.304c0.567-3.844-0.744-5.765-3.938-5.765l0,0H138.266z
	 M137.988,17.216c0.933-0.146,1.807,0.491,1.953,1.423c0.033,0.217,0.023,0.438-0.024,0.652H135.9
	c-0.08-1.066,0.721-1.997,1.789-2.076c0.101-0.008,0.203-0.007,0.304,0.001l0,0H137.988z"/>
<path fill="#66BBFF" d="M31.639,8.334c-0.6-1.234-2.114-2.683-2.777-2.234c0.707,0.983,1.099,2.157,1.124,3.368
	c0.039,2.356-0.224,15.031-0.225,15.11c-0.091,1.205-0.887,2.242-2.028,2.643c-1.807,0.566-2.709,0-4.2-0.928
	c-0.184-0.115-13.294-7.969-13.89-8.332c-0.104-0.066-0.235-0.07-0.343-0.011l-1.351,0.739c-0.16,0.088-0.218,0.287-0.131,0.445
	c0.028,0.053,0.068,0.096,0.118,0.123c0.157,0.102,14.863,8.934,15.031,9.034c1.013,0.703,2.208,1.101,3.44,1.144
	c0.655-0.006,1.305-0.113,1.928-0.317c1.946-0.646,3.303-2.409,3.43-4.455c0-0.003,0-0.006,0-0.009
	c0.007-0.442,0.142-8.579,0.2-12.317C32.128,10.994,32.017,9.633,31.639,8.334z"/>
<path fill="#66BBFF" d="M27.684,21.052l0.051-10.374c0.039-2.368,0.176-4.248-0.323-5.267c-0.576-1.176-1.986-2.542-2.688-2.277
	c-0.043,0.016-0.066,0.063-0.05,0.106c0.002,0.007,0.006,0.014,0.01,0.02c0.672,0.968,1.048,2.11,1.08,3.288
	c0.021,1.035-0.081,14.535-0.081,14.535l-0.009,4.092c0.011,0.181,0.118,0.341,0.28,0.421c0.31,0.178,0.678,0.223,1.023,0.129
	c0.409-0.078,0.706-0.436,0.707-0.853V21.052z"/>
<path fill="#4DAFFF" d="M14.8,6.125L5.533,10.92c-2.133,1.071-3.867,1.827-4.54,2.739C0.449,14.415,0.107,15.297,0,16.222
	c-0.01,0.214,0.156,0.395,0.37,0.405c0.133,0.006,0.26-0.057,0.336-0.166c0.535-0.783,1.244-1.432,2.073-1.893
	c0.912-0.5,12.985-6.71,12.985-6.71l3.639-1.9c0.162-0.095,0.258-0.271,0.251-0.458c0.012-0.331-0.104-0.653-0.324-0.9
	c-0.289-0.348-0.782-0.447-1.183-0.238L14.8,6.125z"/>
<path fill="#4DAFFF" d="M22.154,23.376c0.244,0.13,0.547,0.036,0.676-0.208c0.034-0.063,0.053-0.133,0.058-0.204
	c0.127-3.437,0.618-16.447,0.625-16.617c0.128-1.215-0.102-2.44-0.662-3.525c-0.324-0.564-0.734-1.074-1.215-1.513
	c-1.532-1.37-3.735-1.688-5.593-0.809h-0.008L5.075,6.271C3.815,6.78,2.67,7.536,1.707,8.494c-0.8,1.115-1.34,3.123-0.627,3.481
	c0.526-1.09,1.37-1.996,2.42-2.599C5.563,8.2,16.867,2.311,16.937,2.274c1.103-0.502,2.397-0.316,3.314,0.477
	c1.376,1.288,1.318,2.339,1.221,4.082c-0.011,0.2-0.5,13.537-0.579,15.62c-0.006,0.146,0.071,0.283,0.2,0.354L22.154,23.376z"/>
<path fill="#33A5FF" d="M16.836,34.018c1.376,0.127,3.407-0.412,3.364-1.201c-1.214,0.096-2.428-0.178-3.487-0.777
	c-2.054-1.182-12.86-7.928-12.927-7.969c-0.988-0.688-1.474-1.896-1.234-3.077c0.443-1.824,1.393-2.302,2.969-3.089
	c0.195-0.1,13.738-7.167,14.358-7.486c0.106-0.054,0.174-0.161,0.179-0.28l0.058-1.526c0.004-0.118-0.054-0.229-0.154-0.291
	c-0.099-0.064-0.225-0.071-0.331-0.019c-0.164,0.084-15.379,8-15.553,8.093c-1.125,0.494-2.084,1.3-2.76,2.332
	c-0.332,0.559-0.575,1.166-0.72,1.799c-0.437,1.994,0.385,4.055,2.076,5.201l0.008,0.004l10.525,6.514
	C14.286,33.068,15.52,33.672,16.836,34.018z"/>
<path fill="#33A5FF" d="M8.068,24.1l8.939,5.366c2.027,1.248,3.581,2.329,4.718,2.429c1.317,0.113,3.231-0.385,3.352-1.121
	c0.006-0.041-0.022-0.08-0.064-0.088c-0.004,0-0.008,0-0.013,0c-1.184,0.074-2.364-0.189-3.4-0.77
	C20.686,29.4,9.07,22.391,9.07,22.391l-3.53-2.104c-0.162-0.085-0.357-0.077-0.511,0.021c-0.321,0.178-0.555,0.479-0.648,0.832
	c-0.141,0.365,0.002,0.778,0.339,0.979L8.068,24.1z"/>
<rect id="矩形_1859" x="151" y="11" opacity="0.32" fill="#FFFFFF" enable-background="new    " width="1" height="17"/>
<g>
	<path fill="#FFFFFF" d="M160.816,22.658c0.343,0.301,0.802,0.547,1.375,0.738c0.574,0.191,1.119,0.289,1.636,0.289
		c1.571,0,2.356-0.561,2.356-1.68c0-0.313-0.086-0.596-0.254-0.846c-0.17-0.252-0.4-0.475-0.693-0.666
		c-0.295-0.191-0.848-0.488-1.656-0.891c-1.124-0.561-1.864-1.078-2.221-1.559c-0.357-0.479-0.535-1.027-0.535-1.646
		c0-0.931,0.373-1.668,1.121-2.213c0.746-0.544,1.688-0.817,2.828-0.817c1.113,0,1.931,0.136,2.451,0.405v1.578
		c-0.677-0.467-1.529-0.702-2.562-0.702c-0.687,0-1.243,0.144-1.674,0.431c-0.433,0.287-0.647,0.686-0.647,1.197
		c0,0.453,0.149,0.822,0.447,1.106c0.3,0.284,0.947,0.673,1.945,1.165c1.101,0.527,1.869,1.051,2.31,1.578
		c0.438,0.525,0.656,1.115,0.656,1.771c0,0.98-0.356,1.737-1.069,2.264c-0.714,0.525-1.706,0.787-2.974,0.787
		c-0.443,0-0.962-0.061-1.552-0.184s-1.021-0.275-1.291-0.459v-1.648H160.816z"/>
	<path fill="#FFFFFF" d="M176.225,21.125h-5.6c0.023,0.854,0.258,1.514,0.702,1.979c0.442,0.467,1.063,0.699,1.856,0.699
		c0.896,0,1.721-0.287,2.469-0.861v1.268c-0.705,0.498-1.639,0.744-2.799,0.744c-1.158,0-2.063-0.365-2.709-1.1
		c-0.648-0.73-0.976-1.75-0.976-3.053c0-1.225,0.354-2.234,1.065-3.031c0.711-0.794,1.597-1.192,2.65-1.192
		c1.047,0,1.863,0.337,2.452,1.009c0.589,0.673,0.884,1.614,0.884,2.825v0.715L176.225,21.125L176.225,21.125z M174.807,19.99
		c-0.006-0.723-0.177-1.283-0.514-1.678c-0.339-0.396-0.813-0.594-1.426-0.594c-0.564,0-1.053,0.209-1.465,0.631
		c-0.411,0.418-0.672,0.965-0.777,1.641H174.807z"/>
	<path fill="#FFFFFF" d="M183.637,24.402c-0.613,0.367-1.351,0.549-2.213,0.549c-1.158,0-2.088-0.371-2.793-1.113
		c-0.704-0.742-1.055-1.703-1.055-2.885c0-1.313,0.379-2.369,1.139-3.172c0.76-0.803,1.775-1.205,3.049-1.205
		c0.733,0,1.359,0.13,1.881,0.391v1.404c-0.563-0.415-1.189-0.622-1.881-0.622c-0.812,0-1.47,0.28-1.979,0.843
		c-0.508,0.561-0.764,1.311-0.764,2.245c0,0.922,0.237,1.644,0.721,2.164c0.479,0.521,1.127,0.781,1.941,0.781
		c0.688,0,1.34-0.228,1.95-0.683L183.637,24.402L183.637,24.402z"/>
	<path fill="#FFFFFF" d="M192.143,24.764h-1.426v-1.258h-0.027c-0.537,0.963-1.356,1.445-2.467,1.445
		c-1.896,0-2.843-1.133-2.843-3.398v-4.789h1.403v4.58c0,1.625,0.621,2.438,1.865,2.438c0.617,0,1.117-0.229,1.496-0.685
		c0.383-0.455,0.57-1.033,0.57-1.728v-4.607h1.426v8H192.143L192.143,24.764z"/>
	<path fill="#FFFFFF" d="M198.956,18.168c-0.237-0.169-0.562-0.253-0.978-0.253c-0.551,0-1.002,0.257-1.359,0.771
		c-0.355,0.516-0.535,1.19-0.535,2.03v4.05h-1.417v-8h1.417v1.626h0.029c0.404-1.176,1.104-1.766,2.097-1.766
		c0.323,0,0.571,0.038,0.746,0.109V18.168L198.956,18.168z"/>
	<path fill="#FFFFFF" d="M200.148,13.943c0-0.251,0.086-0.46,0.258-0.633c0.171-0.171,0.382-0.256,0.632-0.256
		c0.256,0,0.472,0.084,0.647,0.252c0.176,0.169,0.264,0.382,0.264,0.637c0,0.251-0.088,0.46-0.264,0.625
		c-0.178,0.167-0.394,0.25-0.647,0.25s-0.468-0.083-0.638-0.25C200.232,14.403,200.148,14.195,200.148,13.943z M200.314,24.764v-8
		h1.418v8H200.314z"/>
	<path fill="#FFFFFF" d="M208.105,24.684c-0.309,0.17-0.728,0.254-1.25,0.254c-1.435,0-2.147-0.793-2.147-2.379v-4.623h-1.375v-1.17
		h1.375V14.84l1.41-0.449v2.373h1.987v1.171h-1.987v4.369c0,0.524,0.088,0.901,0.269,1.129c0.176,0.228,0.475,0.34,0.889,0.34
		c0.317,0,0.598-0.09,0.832-0.269v1.179H208.105L208.105,24.684z"/>
	<path fill="#FFFFFF" d="M216.293,16.764l-3.631,9.208c-0.676,1.703-1.628,2.559-2.857,2.559c-0.353,0-0.652-0.037-0.904-0.115
		v-1.244c0.274,0.107,0.541,0.158,0.798,0.158c0.641,0,1.12-0.373,1.438-1.127l0.613-1.453l-3.139-7.986h1.566l2.094,6.011
		l0.172,0.658h0.037c0.027-0.148,0.086-0.363,0.174-0.646l2.184-6.025L216.293,16.764L216.293,16.764z"/>
</g>
</svg>
