<?xml version="1.0" encoding="utf-8"?>
<!-- Generator: Adobe Illustrator 16.0.0, SVG Export Plug-In . SVG Version: 6.00 Build 0)  -->
<!DOCTYPE svg PUBLIC "-//W3C//DTD SVG 1.1//EN" "http://www.w3.org/Graphics/SVG/1.1/DTD/svg11.dtd" [
	<!ENTITY ns_extend "http://ns.adobe.com/Extensibility/1.0/">
	<!ENTITY ns_ai "http://ns.adobe.com/AdobeIllustrator/10.0/">
	<!ENTITY ns_graphs "http://ns.adobe.com/Graphs/1.0/">
	<!ENTITY ns_vars "http://ns.adobe.com/Variables/1.0/">
	<!ENTITY ns_imrep "http://ns.adobe.com/ImageReplacement/1.0/">
	<!ENTITY ns_sfw "http://ns.adobe.com/SaveForWeb/1.0/">
	<!ENTITY ns_custom "http://ns.adobe.com/GenericCustomNamespace/1.0/">
	<!ENTITY ns_adobe_xpath "http://ns.adobe.com/XPath/1.0/">
]>
<svg version="1.1" id="最终logo" xmlns:x="&ns_extend;" xmlns:i="&ns_ai;" xmlns:graph="&ns_graphs;"
	 xmlns="http://www.w3.org/2000/svg" xmlns:xlink="http://www.w3.org/1999/xlink" x="0px" y="0px" width="207px" height="34px"
	 viewBox="0 0 207 34" enable-background="new 0 0 207 34" xml:space="preserve">
<metadata>
	<sfw  xmlns="&ns_sfw;">
		<slices></slices>
		<sliceSourceBounds  x="-8178" y="-2.494" width="16383" height="33.994" bottomLeftOrigin="true"></sliceSourceBounds>
	</sfw>
</metadata>
<path id="形状_1855" fill="#43B7FF" d="M13.521,25.715l10.873-6.354l-2.454-1.436l-1.883-1.1l-6.536,3.816l-1.9,1.109L9.184,23.18
	l-0.856,0.5c-2.2,1.283-3.992,0.232-3.992-2.336v-9.037c0-2.568,1.8-3.619,3.992-2.335l0.856,0.5V6.941
	c0-0.456,0.033-0.912,0.1-1.363C7.363,4.741,5.161,4.857,3.339,5.89C1.145,7.265-0.133,9.721,0,12.307v9.039
	c-0.132,2.586,1.146,5.041,3.341,6.415c1.823,1.033,4.025,1.149,5.945,0.313c0.417-0.167,0.822-0.364,1.21-0.592L13.521,25.715z"/>
<path id="形状_1856" fill="#0682CE" d="M8.978,10.764v12.654L11.415,22l1.9-1.105V7.246c0-2.558,1.795-3.6,3.989-2.325l7.721,4.5
	c0.928,0.422,1.556,1.31,1.645,2.325c-0.089,1.015-0.717,1.903-1.645,2.325l-0.845,0.493l3.012,1.755
	c0.391,0.229,0.765,0.486,1.117,0.77c1.672-1.271,2.665-3.242,2.691-5.342c-0.064-2.58-1.524-4.921-3.812-6.114l-7.721-4.5
	c-2.15-1.404-4.898-1.51-7.15-0.276C10.519,1.944,9.323,3.802,9.08,5.889c-0.067,0.449-0.101,0.903-0.1,1.357v3.517L8.978,10.764z"
	/>
<path id="形状_1857" fill="#199FF2" d="M19.332,32.859l7.7-4.508c2.284-1.201,3.738-3.545,3.8-6.123
	c-0.025-2.104-1.017-4.076-2.687-5.354c-0.352-0.287-0.724-0.546-1.115-0.776l-3-1.758L13.2,8.009v5.06l6.512,3.807l1.876,1.101
	l2.444,1.432L24.87,19.9c0.926,0.424,1.552,1.313,1.64,2.328c-0.087,1.016-0.714,1.904-1.64,2.33l-7.7,4.508
	c-2.187,1.281-3.977,0.231-3.977-2.33v-0.993l-3.013,1.765c-0.387,0.227-0.79,0.424-1.206,0.588c0.241,2.088,1.431,3.947,3.226,5.04
	C14.445,34.373,17.19,34.266,19.332,32.859z"/>
<rect id="矩形_1859" x="112" y="9" opacity="0.32" fill="#333333" enable-background="new    " width="1" height="17"/>
<path id="形状_1853" fill="#333333" d="M73.8,24.7c-1.518,0.181-3.043,0.282-4.572,0.308c-3.108,0-6.534-0.547-8.024-2.05
	c-1.471-1.616-2.237-3.753-2.126-5.935c-0.146-2.185,0.585-4.337,2.031-5.982c1.484-1.5,4.751-2.02,7.929-2.02
	c1.59-0.02,3.179,0.047,4.762,0.2v2.46c-1.321-0.384-2.688-0.583-4.064-0.592c-1.983,0-3.66,0.324-4.9,1.666
	c-0.91,1.208-1.333,2.713-1.186,4.218c0,2.365,0.523,3.519,1.6,4.49c1.311,1.055,2.994,1.529,4.662,1.316
	c1.307-0.049,2.607-0.213,3.885-0.49V24.7H73.8z M105,24.7c-1.518,0.181-3.043,0.282-4.571,0.308c-3.109,0-6.535-0.547-8.024-2.05
	c-1.471-1.616-2.236-3.753-2.126-5.935c-0.146-2.185,0.585-4.337,2.031-5.982c1.484-1.5,4.751-2.02,7.929-2.02
	c1.59-0.02,3.179,0.047,4.761,0.2v2.46c-1.321-0.384-2.688-0.583-4.063-0.592c-1.983,0-3.661,0.324-4.9,1.666
	c-0.911,1.208-1.334,2.713-1.187,4.218c0,2.365,0.523,3.519,1.6,4.49c1.311,1.055,2.994,1.529,4.662,1.316
	c1.308-0.051,2.609-0.217,3.888-0.496V24.7z M44,9h4.143l3.348,8.589L54.782,9h4.085L52.8,25.006h-2.739L44,9z M88.631,9
	l0.009,1.926H79.8l-0.009,5.5h8.839v1.924h-8.838v6.664h-3.86V9H88.631L88.631,9z"/>
<g>
	<path fill="#333333" d="M121.001,20.193c0.312,0.272,0.728,0.496,1.248,0.671c0.521,0.173,1.017,0.263,1.483,0.263
		c1.427,0,2.14-0.509,2.14-1.523c0-0.283-0.078-0.541-0.231-0.768c-0.154-0.229-0.363-0.432-0.629-0.604
		c-0.269-0.174-0.771-0.442-1.504-0.807c-1.02-0.509-1.691-0.979-2.016-1.416c-0.324-0.435-0.486-0.933-0.486-1.493
		c0-0.847,0.34-1.517,1.018-2.009c0.678-0.491,1.533-0.742,2.567-0.742c1.011,0,1.75,0.125,2.224,0.367v1.434
		c-0.612-0.425-1.387-0.639-2.321-0.639c-0.624,0-1.129,0.131-1.521,0.392c-0.393,0.259-0.588,0.621-0.588,1.086
		c0,0.41,0.135,0.745,0.405,1.004c0.272,0.258,0.86,0.61,1.767,1.058c0.998,0.479,1.696,0.954,2.094,1.433s0.597,1.012,0.597,1.606
		c0,0.892-0.323,1.577-0.972,2.056c-0.646,0.477-1.547,0.713-2.696,0.713c-0.402,0-0.873-0.055-1.407-0.168
		c-0.533-0.108-0.928-0.248-1.171-0.414V20.193L121.001,20.193z"/>
	<path fill="#333333" d="M134.98,18.803h-5.082c0.022,0.774,0.234,1.373,0.639,1.797c0.4,0.422,0.965,0.633,1.686,0.633
		c0.814,0,1.563-0.26,2.239-0.78v1.149c-0.64,0.451-1.485,0.674-2.539,0.674c-1.052,0-1.871-0.332-2.459-0.998
		c-0.59-0.661-0.885-1.586-0.885-2.769c0-1.111,0.321-2.028,0.968-2.751c0.645-0.722,1.447-1.083,2.405-1.083
		c0.948,0,1.69,0.306,2.226,0.915c0.534,0.608,0.801,1.465,0.801,2.564V18.8h0.004v0.003H134.98z M133.693,17.773
		c-0.004-0.657-0.158-1.165-0.465-1.521c-0.309-0.36-0.736-0.539-1.293-0.539c-0.513,0-0.957,0.188-1.33,0.57
		c-0.371,0.38-0.609,0.877-0.705,1.49H133.693z"/>
	<path fill="#333333" d="M141.708,21.775c-0.556,0.334-1.226,0.496-2.009,0.496c-1.051,0-1.895-0.334-2.533-1.01
		c-0.641-0.674-0.957-1.544-0.957-2.615c0-1.191,0.343-2.15,1.033-2.878c0.688-0.729,1.609-1.094,2.767-1.094
		c0.665,0,1.232,0.117,1.706,0.355v1.272c-0.512-0.377-1.08-0.563-1.706-0.563c-0.737,0-1.335,0.254-1.796,0.764
		c-0.461,0.508-0.691,1.189-0.691,2.037c0,0.836,0.215,1.49,0.653,1.964c0.435,0.472,1.022,0.708,1.763,0.708
		c0.623,0,1.215-0.207,1.771-0.618V21.775L141.708,21.775z"/>
	<path fill="#333333" d="M149.427,22.104h-1.294v-1.141h-0.025c-0.487,0.872-1.23,1.311-2.238,1.311
		c-1.721,0-2.579-1.024-2.579-3.082v-4.348h1.272V19c0,1.475,0.563,2.211,1.692,2.211c0.562,0,1.017-0.207,1.356-0.621
		c0.348-0.413,0.52-0.936,0.52-1.566v-4.181h1.293L149.427,22.104L149.427,22.104z"/>
	<path fill="#333333" d="M155.607,16.119c-0.213-0.154-0.508-0.229-0.887-0.229c-0.498,0-0.908,0.231-1.231,0.698
		c-0.323,0.467-0.487,1.079-0.487,1.842v3.676h-1.286v-7.259h1.286v1.477h0.025c0.367-1.067,1.004-1.604,1.902-1.604
		c0.293,0,0.52,0.034,0.678,0.1V16.119L155.607,16.119z"/>
	<path fill="#333333" d="M156.691,12.285c0-0.229,0.078-0.418,0.232-0.575c0.155-0.155,0.346-0.232,0.573-0.232
		c0.231,0,0.429,0.077,0.587,0.229c0.161,0.152,0.24,0.346,0.24,0.58c0,0.227-0.079,0.416-0.24,0.565
		c-0.159,0.15-0.354,0.228-0.587,0.228s-0.427-0.077-0.578-0.228S156.691,12.515,156.691,12.285z M156.842,22.104v-7.26h1.287v7.26
		H156.842z"/>
	<path fill="#333333" d="M163.911,22.032c-0.278,0.151-0.659,0.229-1.134,0.229c-1.303,0-1.949-0.721-1.949-2.158v-4.196h-1.246
		v-1.063h1.246V13.1l1.279-0.408v2.153h1.804v1.063h-1.804v3.966c0,0.478,0.08,0.817,0.244,1.022c0.16,0.207,0.431,0.31,0.806,0.31
		c0.286,0,0.542-0.081,0.755-0.241L163.911,22.032L163.911,22.032L163.911,22.032z"/>
	<path fill="#333333" d="M171.341,14.845l-3.295,8.357c-0.612,1.546-1.476,2.319-2.593,2.319c-0.321,0-0.592-0.03-0.82-0.104V24.29
		c0.249,0.097,0.489,0.144,0.723,0.144c0.582,0,1.019-0.34,1.308-1.021l0.556-1.319l-2.848-7.246h1.422l1.898,5.455l0.156,0.599
		h0.033c0.026-0.135,0.077-0.33,0.158-0.588l1.98-5.466L171.341,14.845L171.341,14.845z"/>
</g>
</svg>
