<?xml version="1.0" encoding="utf-8"?>
<!-- Generator: Adobe Illustrator 16.0.0, SVG Export Plug-In . SVG Version: 6.00 Build 0)  -->
<!DOCTYPE svg PUBLIC "-//W3C//DTD SVG 1.1//EN" "http://www.w3.org/Graphics/SVG/1.1/DTD/svg11.dtd" [
	<!ENTITY ns_extend "http://ns.adobe.com/Extensibility/1.0/">
	<!ENTITY ns_ai "http://ns.adobe.com/AdobeIllustrator/10.0/">
	<!ENTITY ns_graphs "http://ns.adobe.com/Graphs/1.0/">
	<!ENTITY ns_vars "http://ns.adobe.com/Variables/1.0/">
	<!ENTITY ns_imrep "http://ns.adobe.com/ImageReplacement/1.0/">
	<!ENTITY ns_sfw "http://ns.adobe.com/SaveForWeb/1.0/">
	<!ENTITY ns_custom "http://ns.adobe.com/GenericCustomNamespace/1.0/">
	<!ENTITY ns_adobe_xpath "http://ns.adobe.com/XPath/1.0/">
]>
<svg version="1.1" id="新logo搭配WAN" xmlns:x="&ns_extend;" xmlns:i="&ns_ai;" xmlns:graph="&ns_graphs;"
	 xmlns="http://www.w3.org/2000/svg" xmlns:xlink="http://www.w3.org/1999/xlink" x="0px" y="0px" width="180px" height="140px"
	 viewBox="0 0 180 140" enable-background="new 0 0 180 140" xml:space="preserve">
<metadata>
	<sfw  xmlns="&ns_sfw;">
		<slices></slices>
		<sliceSourceBounds  x="-76.5" y="-56.228" width="180" height="140.728" bottomLeftOrigin="true"></sliceSourceBounds>
		<optimizationSettings>
			<targetSettings  targetSettingsID="0" fileFormat="JPEGFormat">
				
					<JPEGFormat  quality="100" blurAmount="0" noMatteColor="false" optimized="true" progressive="false" matteColor="#FFFFFF" embedICCProfile="false">
					</JPEGFormat>
			</targetSettings>
		</optimizationSettings>
	</sfw>
</metadata>
<rect display="none" width="180" height="140"/>
<g id="logo新_拷贝_4">
	<path id="形状_1867" fill="#66BBFF" d="M123.725,18.114c-1.293-2.684-4.558-5.831-5.986-4.864
		c1.525,2.141,2.371,4.692,2.425,7.321c0.084,5.121-0.481,32.671-0.486,32.843c-0.003,0.172-0.323,4.461-4.374,5.743
		c-3.895,1.233-5.84,0.011-9.064-2.016c-0.399-0.25-28.665-17.321-29.949-18.109c-0.22-0.134-0.495-0.14-0.721-0.016l-2.913,1.608
		c-0.347,0.191-0.474,0.627-0.283,0.974c0.06,0.109,0.148,0.201,0.254,0.266c0.34,0.206,32.049,19.412,32.411,19.636
		c3.322,2.48,7.658,3.15,11.574,1.791c6.984-2.211,7.384-9.379,7.4-9.683c0-0.006,0-0.013,0-0.02
		c0.016-0.962,0.307-18.648,0.439-26.771C124.549,22.968,124.596,19.92,123.725,18.114z M115.198,45.759l0.11-22.549
		c0.082-5.148,0.379-9.233-0.701-11.448c-1.242-2.556-4.281-5.526-5.799-4.95c-0.096,0.034-0.144,0.137-0.108,0.23
		c0.005,0.015,0.013,0.029,0.022,0.043c1.45,2.106,2.26,4.589,2.327,7.147c0.048,2.249-0.174,31.594-0.174,31.594l-0.021,8.9
		c0.021,0.39,0.25,0.739,0.602,0.912c0.668,0.386,1.463,0.488,2.207,0.281c0.885-0.174,1.523-0.95,1.523-1.852v-8.3L115.198,45.759z
		"/>
	<path id="形状_1868" fill="#4DAFFF" d="M87.411,13.313L67.434,23.734c-4.588,2.328-8.337,3.972-9.789,5.954
		c-1.175,1.646-1.913,3.563-2.145,5.572c-0.024,0.461,0.331,0.854,0.792,0.878c0.289,0.015,0.565-0.121,0.73-0.359
		c1.15-1.7,2.681-3.109,4.471-4.115c1.966-1.089,28-14.585,28-14.585l7.846-4.12c0.349-0.207,0.558-0.588,0.545-0.994
		c0.024-0.714-0.227-1.41-0.7-1.946c-0.619-0.757-1.687-0.974-2.553-0.519L87.411,13.313z M103.27,50.813
		c0.518,0.283,1.166,0.093,1.449-0.424c0.079-0.145,0.124-0.305,0.131-0.47c0.272-7.47,1.332-35.748,1.35-36.118
		c0.277-2.638-0.219-5.3-1.428-7.661c-0.697-1.225-1.582-2.334-2.621-3.289c-5.319-5.023-11.782-1.909-12.054-1.774l-0.018,0.009
		L66.446,13.631c-3.415,1.768-6.1,3.2-7.262,4.831c-1.721,2.423-2.89,6.788-1.351,7.566c1.134-2.366,2.956-4.334,5.227-5.648
		c4.444-2.546,28.814-15.356,28.965-15.437c0.149-0.081,4.06-1.871,7.145,1.038c2.969,2.8,2.842,5.083,2.633,8.872
		c-0.025,0.442-1.078,29.423-1.248,33.951c-0.013,0.319,0.157,0.617,0.438,0.769L103.27,50.813z"/>
	<path id="形状_1869" fill="#33A5FF" d="M91.805,73.938c2.965,0.275,7.346-0.895,7.254-2.613c-2.621,0.199-5.242-0.393-7.521-1.7
		c-4.426-2.56-27.726-17.224-27.872-17.313s-3.652-2.574-2.662-6.693c0.954-3.964,3-5,6.4-6.709
		c0.42-0.211,29.624-15.582,30.959-16.275c0.229-0.119,0.377-0.351,0.387-0.608l0.126-3.317c0.015-0.396-0.295-0.728-0.69-0.742
		c-0.125-0.004-0.246,0.023-0.355,0.08c-0.354,0.183-33.161,17.4-33.537,17.591c-2.43,1.077-4.495,2.836-5.947,5.062
		c-0.716,1.215-1.24,2.533-1.553,3.908c-1.71,7.106,4.223,11.136,4.476,11.3l0.017,0.011l22.7,14.153
		C87.224,72.143,89.811,73.751,91.805,73.938z M72.904,52.391l19.272,11.663c4.371,2.712,7.721,5.062,10.174,5.276
		c2.84,0.248,6.965-0.836,7.229-2.435c0.02-0.091-0.041-0.179-0.133-0.197c-0.014-0.003-0.028-0.004-0.045-0.003
		c-2.558,0.166-5.106-0.415-7.342-1.672c-1.951-1.115-27-16.357-27-16.357l-7.611-4.577c-0.348-0.184-0.769-0.166-1.1,0.048
		c-0.694,0.387-1.2,1.041-1.4,1.81c-0.302,0.792,0.005,1.686,0.73,2.125L72.904,52.391z"/>
</g>
<g id="组_10">
	<path id="SeerEngine2_拷贝_4" fill="#FFFFFF" d="M72.621,112.266c3.873,0,5.81-1.399,5.811-4.201
		c0-2.487-1.523-3.732-4.568-3.732h-2.387c-0.768,0.157-1.518-0.339-1.675-1.107c-0.026-0.127-0.034-0.258-0.025-0.387
		c0-1.309,1.174-1.96,3.522-1.961c1.516-0.008,3.021,0.244,4.451,0.747v-2.24c-1.442-0.44-2.943-0.661-4.451-0.653
		c-4.076,0-6.114,1.369-6.114,4.107c0,2.49,1.431,3.735,4.294,3.735h2.387c1.317,0,1.976,0.497,1.976,1.491
		c0,1.371-1.073,2.057-3.218,2.056c-1.616,0.024-3.224-0.229-4.754-0.746v2.24c1.543,0.454,3.145,0.676,4.754,0.653l0,0
		L72.621,112.266z M85.721,102.365c-3.411,0-5.116,1.597-5.116,4.789c0,3.343,1.862,5.014,5.585,5.015
		c1.173,0.021,2.345-0.073,3.5-0.28v-1.961c-1.027,0.187-2.068,0.279-3.111,0.28c-2.257,0-3.385-0.66-3.385-1.979h6.727
		C90.527,104.32,89.127,102.365,85.721,102.365L85.721,102.365z M85.428,104.307c0.963-0.176,1.887,0.463,2.063,1.426
		c0.042,0.228,0.038,0.459-0.009,0.686H83.2c-0.055-1.115,0.805-2.063,1.921-2.119c0.103-0.005,0.207-0.002,0.309,0.01l0,0h-0.002
		V104.307z M97.346,102.365c-3.41,0-5.115,1.597-5.115,4.789c0,3.343,1.861,5.014,5.584,5.015c1.175,0.021,2.347-0.073,3.5-0.28
		v-1.961c-1.024,0.187-2.065,0.279-3.108,0.28c-2.257,0-3.386-0.66-3.386-1.979h6.721c0.605-3.908-0.793-5.862-4.2-5.862l0,0
		L97.346,102.365L97.346,102.365z M97.053,104.307c0.963-0.176,1.887,0.463,2.063,1.426c0.042,0.228,0.038,0.459-0.009,0.686H94.82
		c-0.055-1.115,0.806-2.063,1.922-2.119c0.104-0.005,0.207-0.002,0.309,0.01l0,0h0.002V104.307z M107.084,112.169v-6.563
		c0.643-0.771,1.589-1.225,2.592-1.241v-2c-1.078,0.032-2.102,0.481-2.855,1.256l-0.321-1.251h-2v9.8h2.592H107.084z
		 M112.391,98.816v13.353h9.321v-2.147h-6.778v-3.5h6.31v-2.211h-6.28v-3.36h6.613v-2.13h-9.186V98.816z M127.85,112.169v-6.563
		c0.733-0.741,1.717-1.185,2.758-1.241c0.802-0.132,1.555,0.411,1.686,1.212c0.021,0.137,0.023,0.273,0.008,0.413v6.181h2.594
		v-6.152c0-2.435-1.186-3.65-3.553-3.65c-1.349,0.029-2.658,0.465-3.756,1.251l-0.322-1.251h-2v9.8h2.592L127.85,112.169z
		 M145.206,109.424c-0.778,0.35-1.623,0.52-2.476,0.5c-1.545,0-2.317-0.912-2.317-2.736c0-1.886,0.929-2.828,2.788-2.828
		c0.674-0.028,1.349,0.048,2,0.225v4.837L145.206,109.424z M147.798,102.768c-1.429-0.244-2.874-0.379-4.323-0.399
		c-3.75,0-5.625,1.614-5.625,4.846c0,3.183,1.625,4.771,4.873,4.771c0.851,0.008,1.693-0.151,2.483-0.467
		c0,1.493-0.968,2.24-2.899,2.24c-1.146,0.016-2.287-0.142-3.386-0.467v1.961c1.091,0.327,2.226,0.484,3.365,0.466
		c3.672,0,5.508-1.182,5.507-3.547v-9.399L147.798,102.768z M151.246,98.816v1.961h2.592V98.82h-2.592V98.816z M151.246,102.365v9.8
		h2.592v-9.8H151.246z M159.877,112.165v-6.563c0.734-0.742,1.717-1.185,2.76-1.242c0.799-0.131,1.553,0.412,1.684,1.211
		c0.021,0.139,0.025,0.275,0.009,0.414v6.182h2.593v-6.152c0-2.435-1.186-3.65-3.551-3.65c-1.35,0.029-2.658,0.466-3.756,1.25
		l-0.323-1.25h-2v9.8h2.592L159.877,112.165z M174.848,102.365c-3.41,0-5.117,1.597-5.115,4.789c0,3.343,1.861,5.014,5.584,5.015
		c1.175,0.021,2.347-0.073,3.5-0.28v-1.961c-1.025,0.187-2.066,0.279-3.109,0.28c-2.256,0-3.384-0.66-3.384-1.979h6.72
		c0.605-3.908-0.793-5.862-4.2-5.862l0,0L174.848,102.365L174.848,102.365z M174.555,104.307c0.963-0.176,1.887,0.463,2.063,1.426
		c0.042,0.228,0.036,0.459-0.011,0.686h-4.282c-0.056-1.115,0.805-2.063,1.921-2.119
		C174.348,104.293,174.451,104.296,174.555,104.307L174.555,104.307z"/>
	<path id="形状_1858" fill="#FFFFFF" d="M57.421,112.71c-1.869,0.147-3.866,0.289-5.732,0.289c-3.9,0-8.194-0.513-10.062-1.923
		c-3.115-2.561-3.565-7.16-1.005-10.275c0.269-0.326,0.565-0.63,0.886-0.904C43.367,98.493,47.463,98,51.448,98
		c2.711,0,3.91,0.042,5.971,0.184v2.309c-1.676-0.362-3.385-0.551-5.1-0.557c-2.486,0-4.59,0.299-6.144,1.563
		c-1.094,1.01-1.645,2.479-1.488,3.958c0,2.219,0.656,3.3,2.011,4.212c1.77,1.019,3.816,1.45,5.846,1.233
		c1.632-0.045,3.259-0.197,4.871-0.459v2.267H57.421z M20.569,110.65c2.192,0.233,4.378,0.461,6.577,0.533
		c1.385,0.09,2.774-0.102,4.083-0.562c0.761-0.299,1.275-1.019,1.312-1.835c0.039-0.583-0.164-1.157-0.562-1.585
		c-0.57-0.499-1.265-0.833-2.011-0.968c-1.415-0.239-2.85-0.336-4.284-0.283h-3.187v-1.738l2.961-0.01
		c1.298,0.025,2.596-0.036,3.885-0.188c0.724-0.072,1.411-0.358,1.973-0.82c0.389-0.401,0.599-0.942,0.582-1.5
		c0.031-0.6-0.302-1.157-0.844-1.414c-1.251-0.393-2.561-0.563-3.871-0.506c-2.126,0.008-4.249,0.173-6.351,0.494v-2.033
		C23.297,98.063,26.35,98,27.793,98c2.5,0,6.225,0.251,7.589,0.861c1.098,0.359,1.841,1.384,1.839,2.539
		c-0.027,0.935-0.519,1.795-1.313,2.289c-0.936,0.631-1.996,1.054-3.109,1.24c0.994,0.144,1.968,0.403,2.9,0.777
		c0.674,0.208,1.258,0.641,1.655,1.225c0.324,0.563,0.478,1.207,0.445,1.854c-0.083,1.282-0.806,2.438-1.924,3.071
		c-1.793,0.953-5.364,1.136-8.555,1.136c-0.838,0-4.448-0.144-6.746-0.313v-2.033L20.569,110.65z M14.048,98l0.006,6.208H5.68V98
		H0.821v15H5.68v-6.986h8.374V113h4.853V98H14.048z"/>
</g>
<g>
	<path fill="#FFFFFF" d="M60.665,134.517c0.362,0.318,0.848,0.579,1.454,0.782c0.607,0.201,1.185,0.306,1.73,0.306
		c1.662,0,2.493-0.594,2.493-1.776c0-0.33-0.091-0.63-0.27-0.894c-0.179-0.268-0.423-0.503-0.733-0.704
		c-0.313-0.203-0.896-0.516-1.752-0.939c-1.188-0.594-1.972-1.142-2.348-1.65c-0.378-0.507-0.567-1.087-0.567-1.741
		c0-0.985,0.394-1.767,1.187-2.341c0.789-0.572,1.786-0.865,2.991-0.865c1.177,0,2.042,0.146,2.592,0.429v1.671
		c-0.715-0.495-1.617-0.744-2.708-0.744c-0.726,0-1.316,0.152-1.771,0.456c-0.457,0.302-0.685,0.725-0.685,1.266
		c0,0.479,0.157,0.869,0.473,1.17c0.318,0.301,1.003,0.712,2.059,1.233c1.162,0.558,1.977,1.111,2.44,1.668
		c0.463,0.558,0.694,1.179,0.694,1.873c0,1.04-0.377,1.839-1.131,2.396c-0.754,0.555-1.804,0.831-3.144,0.831
		c-0.469,0-1.017-0.063-1.641-0.194c-0.623-0.129-1.081-0.291-1.364-0.485v-1.745H60.665z"/>
	<path fill="#FFFFFF" d="M76.959,132.896h-5.923c0.026,0.902,0.273,1.6,0.743,2.093c0.467,0.493,1.125,0.738,1.963,0.738
		c0.949,0,1.821-0.303,2.611-0.91v1.34c-0.746,0.527-1.733,0.786-2.96,0.786c-1.224,0-2.181-0.386-2.865-1.162
		c-0.687-0.772-1.031-1.85-1.031-3.228c0-1.295,0.375-2.363,1.128-3.206c0.751-0.841,1.688-1.263,2.803-1.263
		c1.107,0,1.97,0.356,2.594,1.066c0.623,0.71,0.933,1.708,0.933,2.989v0.754h0.004V132.896z M75.459,131.696
		c-0.005-0.767-0.186-1.356-0.542-1.773c-0.359-0.42-0.859-0.629-1.507-0.629c-0.597,0-1.113,0.221-1.549,0.665
		c-0.434,0.442-0.711,1.021-0.822,1.737H75.459z"/>
	<path fill="#FFFFFF" d="M84.798,136.36c-0.648,0.389-1.429,0.579-2.34,0.579c-1.225,0-2.208-0.39-2.954-1.176
		c-0.745-0.786-1.115-1.801-1.115-3.05c0-1.39,0.401-2.507,1.205-3.354c0.803-0.85,1.876-1.275,3.224-1.275
		c0.776,0,1.438,0.137,1.989,0.414v1.483c-0.596-0.439-1.259-0.656-1.989-0.656c-0.858,0-1.554,0.296-2.092,0.891
		c-0.538,0.592-0.807,1.386-0.807,2.374c0,0.975,0.252,1.736,0.763,2.289c0.506,0.549,1.192,0.825,2.053,0.825
		c0.728,0,1.417-0.242,2.064-0.722V136.36L84.798,136.36z"/>
	<path fill="#FFFFFF" d="M93.795,136.744h-1.507v-1.33h-0.031c-0.567,1.017-1.435,1.527-2.609,1.527
		c-2.006,0-3.006-1.195-3.006-3.593v-5.065h1.483v4.843c0,1.719,0.658,2.578,1.973,2.578c0.654,0,1.184-0.242,1.583-0.724
		c0.404-0.482,0.604-1.091,0.604-1.826v-4.873h1.507L93.795,136.744L93.795,136.744z"/>
	<path fill="#FFFFFF" d="M101.001,129.768c-0.249-0.179-0.593-0.268-1.034-0.268c-0.58,0-1.06,0.271-1.437,0.814
		s-0.568,1.258-0.568,2.146v4.284h-1.499v-8.461h1.499v1.721h0.031c0.429-1.244,1.169-1.868,2.218-1.868
		c0.341,0,0.604,0.039,0.788,0.115v1.516H101.001z"/>
	<path fill="#FFFFFF" d="M102.263,125.299c0-0.266,0.092-0.487,0.272-0.67c0.18-0.181,0.401-0.271,0.668-0.271
		c0.271,0,0.5,0.09,0.685,0.268c0.187,0.178,0.278,0.402,0.278,0.676c0,0.264-0.092,0.485-0.278,0.659
		c-0.187,0.175-0.414,0.266-0.685,0.266s-0.496-0.091-0.674-0.266C102.352,125.784,102.263,125.567,102.263,125.299z
		 M102.438,136.744v-8.461h1.501v8.461H102.438z"/>
	<path fill="#FFFFFF" d="M110.678,136.659c-0.324,0.178-0.769,0.27-1.321,0.27c-1.518,0-2.272-0.84-2.272-2.517v-4.891h-1.453
		v-1.238h1.453v-2.034l1.491-0.477v2.511h2.103v1.238h-2.103v4.622c0,0.555,0.094,0.952,0.285,1.191
		c0.186,0.242,0.501,0.36,0.938,0.36c0.335,0,0.632-0.094,0.88-0.281L110.678,136.659L110.678,136.659L110.678,136.659z"/>
	<path fill="#FFFFFF" d="M119.337,128.283l-3.84,9.74c-0.715,1.802-1.721,2.704-3.022,2.704c-0.374,0-0.689-0.036-0.956-0.121
		v-1.315c0.29,0.112,0.57,0.166,0.843,0.166c0.677,0,1.186-0.395,1.522-1.19l0.647-1.537l-3.318-8.445h1.656l2.215,6.357
		l0.181,0.696h0.039c0.031-0.156,0.09-0.385,0.185-0.684l2.309-6.371H119.337L119.337,128.283z"/>
</g>
</svg>
